<svg width="512" height="512" viewBox="0 0 512 512" fill="none" xmlns="http://www.w3.org/2000/svg">
<g clip-path="url(#clip0)">
<path d="M444.709 409.481L402.123 452.067C401.684 452.505 401.218 452.916 400.737 453.298C354.495 489.286 299.173 507.001 244.042 507C178.119 507 112.473 481.705 62.8647 432.096C57.0021 426.234 57.0021 416.744 62.8647 410.881L105.436 368.296C108.251 365.481 112.063 363.904 116.044 363.897C120.026 363.904 123.851 365.481 126.666 368.296C183.82 425.449 272.832 433.206 338.789 386.922L379.565 346.147C421.012 286.963 413.841 206.021 360.832 134.129C360.408 133.549 359.983 132.97 359.545 132.39C330.686 93.8709 292.031 67.1965 264.686 51.5891C235.197 34.7726 212.284 26.9509 212.058 26.8809C205.495 24.6607 201.295 18.2391 201.91 11.3445C202.518 4.44284 207.766 -1.14466 214.618 -2.16976C292.964 -13.9298 365.612 11.0974 424.738 70.2238C515.836 161.322 524.951 306.567 445.946 408.088C445.557 408.576 445.147 409.043 444.709 409.481Z" fill="#CEBB10"/>
<path d="M444.709 409.481L402.123 452.067C401.684 452.505 401.218 452.916 400.737 453.298C354.495 489.286 299.173 507.001 244.042 507C178.119 507 112.473 481.705 62.8647 432.096L126.665 368.296C183.819 425.449 272.831 433.206 338.788 386.922L379.564 346.147C421.011 286.963 413.84 206.021 360.831 134.129L424.738 70.2238C515.836 161.322 524.951 306.567 445.946 408.088C445.557 408.576 445.147 409.043 444.709 409.481Z" fill="#E4E90F"/>
<path d="M213.165 177.941L427.058 417.887C438.811 429.64 463.002 446.843 451.242 458.603C439.482 470.363 420.416 470.363 408.663 458.61L170.579 220.527L213.165 177.941Z" fill="#D4D900"/>
<path d="M213.165 177.941L451.249 416.025C463.002 427.778 463.002 446.844 451.242 458.604L191.872 199.234L213.165 177.941Z" fill="#FFF506"/>
<path d="M284.569 113.116C286.478 118.561 210.144 130.64 206.07 134.714L201.172 208.534L131.976 277.73C129.049 280.658 125.208 282.122 121.368 282.129C117.528 282.122 113.688 280.658 110.761 277.73L57.5321 224.502C51.6766 218.646 51.6766 209.142 57.5321 203.287L163.989 96.8292C167.213 93.6049 171.725 92.0207 176.251 92.5298L272.065 103.173C277.801 103.816 282.659 107.67 284.569 113.116V113.116Z" fill="#CEBB10"/>
<path d="M284.569 113.116C286.478 118.561 285.092 124.615 281.018 128.688L201.172 208.534L126.728 134.09L163.989 96.8301C167.213 93.6058 171.725 92.0217 176.251 92.5308L272.065 103.174C277.801 103.816 282.659 107.67 284.569 113.116V113.116Z" fill="#E4E90F"/>
<path d="M126.665 389.511L37.9724 478.204C35.0442 481.133 31.2048 482.596 27.3645 482.589C23.5251 482.596 19.6848 481.132 16.7565 478.204C10.894 472.342 10.901 462.845 16.7565 456.989L105.449 368.297C111.305 362.441 120.802 362.434 126.664 368.297C132.521 374.151 132.521 383.656 126.665 389.511Z" fill="#E4E90F"/>
<path d="M126.665 389.511L37.9724 478.204C35.0442 481.133 31.2048 482.596 27.3645 482.589C23.5251 482.596 19.6848 481.132 16.7565 478.204L126.664 368.297C132.521 374.151 132.521 383.656 126.665 389.511V389.511Z" fill="#D4D900"/>
</g>
<defs>
<clipPath id="clip0">
<rect width="512" height="512" fill="white"/>
</clipPath>
</defs>
</svg>
